# xmcd CD database file
#
# Track frame offsets:
#	150
#	16634
#	39210
#	59822
#	78038
#	110923
#	144435
#	175585
#	206068
#
# Disc length: 3061 seconds
#
# Revision: 0
# Processed by: cddbd v1.5.2PL0 Copyright (c) Steve Scherf et al.
# Submitted via: CDex 1.50
#
DISCID=6f0bf309
DTITLE=Michael Wollny Trio - Klangspuren
DYEAR=2016
DGENRE=Jazz
TTITLE0=Questions in a world of blue
TTITLE1=De desconfort
TTITLE2=Motette no. 1
TTITLE3=White moon
TTITLE4=Der Wanderer
TTITLE5=Nacht
TTITLE6=When the sleeper wakes
TTITLE7=Nachtfahrten
TTITLE8=Arsene somnambule
EXTD=YEAR: 2016
EXTT0=
EXTT1=
EXTT2=
EXTT3=
EXTT4=
EXTT5=
EXTT6=
EXTT7=
EXTT8=
PLAYORDER=
